# xmcd
#
# Track frame offsets:
#	150
#	13332
#	25730
#	44765
#	66367
#	82605
#	102850
#	124905
#	149422
#	169387
#	181572
#	206645
#	217505
#
# Disc length: 3158 seconds
#
# Revision: 0
# Processed by: cddbd v1.4PL0 Copyright (c) Steve Scherf et al.
# Submitted via: EasyCDDAExtractor 4.5.0.2
#
DISCID=b00c540d
DTITLE=Jabe - Drama City
DYEAR=2002
DGENRE=Folk-Rock
TTITLE0=Those Times Are Over
TTITLE1=Kelly McGuire
TTITLE2=Honest As Pure Gold
TTITLE3=Cold Cold Wind
TTITLE4=Crazy Anne Marie
TTITLE5=Didn't Even Blink
TTITLE6=Can't Be That Bad
TTITLE7=Damn Them Big Brown Eyes
TTITLE8=Pitch Black Road
TTITLE9=Wasted
TTITLE10=Jerk
TTITLE11=Into A Wall
TTITLE12=You'd Think I'd Learn
EXTD=
EXTT0=
EXTT1=
EXTT2=
EXTT3=
EXTT4=
EXTT5=
EXTT6=
EXTT7=
EXTT8=
EXTT9=
EXTT10=
EXTT11=
EXTT12=
PLAYORDER=
